# xmcd
#
# Track frame offsets: 
#        150
#        14865
#        26665
#        40002
#        53912
#        66812
#        82575
#        93277
#        107297
#        119247
#        132642
#        140402
#        151922
#        162617
#        176665
#        189280
#
# Disc length: 2677 seconds
#
# Revision: 2
# Processed by: cddbd v1.5.2PL0 Copyright (c) Steve Scherf et al.
# Submitted via: ExactAudioCopy v1.3
#
DISCID=d60a7310
DTITLE=Wynn Stewart - Wishful Thinking_CD10
DYEAR=2000
DGENRE=Country
TTITLE0=But You Know I Love You
TTITLE1=Young As Spring
TTITLE2=The Games People Play
TTITLE3=It Is No Secret
TTITLE4=Instrumental
TTITLE5=Let Me Talk To You
TTITLE6=Turkey In The Straw
TTITLE7=But You Know I Love You
TTITLE8=Young As Spring (2000)
TTITLE9=The Games People Play (2000)
TTITLE10=Wild One (Jackie Burns)
TTITLE11=Breakin' The Rule (w Jackie Burns)
TTITLE12=Pennies From Heaven (Jackie Burns)
TTITLE13=The End Of The World (Jackie Burns)
TTITLE14=The Kid 'n Me (2000)
TTITLE15=With Or Without Your Love
EXTD=
EXTT0=
EXTT1=
EXTT2=
EXTT3=
EXTT4=
EXTT5=
EXTT6=
EXTT7=
EXTT8=
EXTT9=
EXTT10=
EXTT11=
EXTT12=
EXTT13=
EXTT14=
EXTT15=
PLAYORDER=
